<?xml version="1.0" encoding="utf-8"?>
<!-- Generator: Adobe Illustrator 22.0.0, SVG Export Plug-In . SVG Version: 6.00 Build 0)  -->
<svg version="1.1" id="Layer_1" xmlns="http://www.w3.org/2000/svg" xmlns:xlink="http://www.w3.org/1999/xlink" x="0px" y="0px"
	 viewBox="0 0 701.3 249.9" style="enable-background:new 0 0 701.3 249.9;" xml:space="preserve">
<style type="text/css">
	.st0{display:none;fill:none;}
	.st1{fill:#289EA9;}
	.st2{fill:#18929D;}
	.st3{fill:#30A7B2;}
	.st4{fill:#2AB8C8;}
	.st5{fill:#2FA8B2;}
	.st6{clip-path:url(#SVGID_2_);fill:#009ACE;}
	.st7{clip-path:url(#SVGID_4_);fill:#0FA5DE;}
	.st8{clip-path:url(#SVGID_6_);fill:#008FCD;}
	.st9{clip-path:url(#SVGID_8_);fill:#259ED9;}
	.st10{clip-path:url(#SVGID_10_);fill:#008FCD;}
	.st11{clip-path:url(#SVGID_12_);fill:#0FA5DE;}
	.st12{clip-path:url(#SVGID_14_);fill:#0083C1;}
	.st13{clip-path:url(#SVGID_16_);fill:#1B4361;}
</style>
<g>
	<path class="st0" d="M105.6,235.1c-29.3-17-58.6-33.9-87.9-50.8c-3.9-2.2-5.5-5-5.5-9.5c0-34,0-65.5,0-99.5c0-4.5,1.4-7.5,5.3-9.7
		c29.8-18.7,58.4-33.6,87.7-50.6c3.9-2.2,8.2-2.4,12-0.2c29.4,17,57.1,30.6,88.1,49.3c3.8,2.2,5.6,5.1,5.5,9.5c0,17,0,35.9,0,52.9
		c0,16.8-0.1,30.2,0,47c0,4.9-1.8,10.3-6.1,12.7c-29.2,16.8-58.3,32-87.4,48.9c-2,1.2-4,1.8-6,1.8
		C109.6,236.8,107.6,236.3,105.6,235.1 M100.4,3.2c-29.5,17-58.9,34-88.4,51c-7.6,4.4-11.4,11-11.4,19.8c0,17,0,33.9,0,50.9
		c0,17.1,0,34.2,0,51.3c0,8.4,3.6,14.9,10.9,19.1c29.8,17.2,59.6,34.4,89.4,51.6c7.1,4.1,14.4,4.1,21.4,0
		c29.7-17.1,59.4-34.2,89-51.4c7.5-4.3,11.3-10.9,11.3-19.5c0-34,0-68.1,0-102.1c0-8.7-3.8-15.3-11.3-19.6c-29.5-17-59-34-88.5-51
		c-3.7-2.2-7.5-3.2-11.3-3.2C107.9-0.1,104.1,1,100.4,3.2"/>
	<path class="st0" d="M105.6,235.1c-29.3-17-58.6-33.9-87.9-50.8c-3.9-2.2-5.5-5-5.5-9.5c0-34,0-65.5,0-99.5c0-4.5,1.4-7.5,5.3-9.7
		c29.8-18.7,58.4-33.6,87.7-50.6c3.9-2.2,8.2-2.4,12-0.2c29.4,17,57.1,30.6,88.1,49.3c3.8,2.2,5.6,5.1,5.5,9.5c0,17,0,35.9,0,52.9
		c0,16.8-0.1,30.2,0,47c0,4.9-1.8,10.3-6.1,12.7c-29.2,16.8-58.3,32-87.4,48.9c-2,1.2-4,1.8-6,1.8
		C109.6,236.8,107.6,236.3,105.6,235.1 M100.4,3.2c-29.5,17-58.9,34-88.4,51c-7.6,4.4-11.4,11-11.4,19.8c0,17,0,33.9,0,50.9
		c0,17.1,0,34.2,0,51.3c0,8.4,3.6,14.9,10.9,19.1c29.8,17.2,59.6,34.4,89.4,51.6c7.1,4.1,14.4,4.1,21.4,0
		c29.7-17.1,59.4-34.2,89-51.4c7.5-4.3,11.3-10.9,11.3-19.5c0-34,0-68.1,0-102.1c0-8.7-3.8-15.3-11.3-19.6c-29.5-17-59-34-88.5-51
		c-3.7-2.2-7.5-3.2-11.3-3.2C107.9-0.1,104.1,1,100.4,3.2"/>
	<path class="st0" d="M105.6,235.1c-29.3-17-58.6-33.9-87.9-50.8c-3.9-2.2-5.5-5-5.5-9.5c0-34,0-65.5,0-99.5c0-4.5,1.4-7.5,5.3-9.7
		c29.8-18.7,58.4-33.6,87.7-50.6c3.9-2.2,8.2-2.4,12-0.2c29.4,17,57.1,30.6,88.1,49.3c3.8,2.2,5.6,5.1,5.5,9.5c0,17,0,35.9,0,52.9
		c0,16.8-0.1,30.2,0,47c0,4.9-1.8,10.3-6.1,12.7c-29.2,16.8-58.3,32-87.4,48.9c-2,1.2-4,1.8-6,1.8
		C109.6,236.8,107.6,236.3,105.6,235.1 M100.4,3.2c-29.5,17-58.9,34-88.4,51c-7.6,4.4-11.4,11-11.4,19.8c0,17,0,33.9,0,50.9
		c0,17.1,0,34.2,0,51.3c0,8.4,3.6,14.9,10.9,19.1c29.8,17.2,59.6,34.4,89.4,51.6c7.1,4.1,14.4,4.1,21.4,0
		c29.7-17.1,59.4-34.2,89-51.4c7.5-4.3,11.3-10.9,11.3-19.5c0-34,0-68.1,0-102.1c0-8.7-3.8-15.3-11.3-19.6c-29.5-17-59-34-88.5-51
		c-3.7-2.2-7.5-3.2-11.3-3.2C107.9-0.1,104.1,1,100.4,3.2"/>
	<path class="st0" d="M105.6,235.1c-29.3-17-58.6-33.9-87.9-50.8c-3.9-2.2-5.5-5-5.5-9.5c0-34,0-65.5,0-99.5c0-4.5,1.4-7.5,5.3-9.7
		c29.8-18.7,58.4-33.6,87.7-50.6c3.9-2.2,8.2-2.4,12-0.2c29.4,17,57.1,30.6,88.1,49.3c3.8,2.2,5.6,5.1,5.5,9.5c0,17,0,35.9,0,52.9
		c0,16.8-0.1,30.2,0,47c0,4.9-1.8,10.3-6.1,12.7c-29.2,16.8-58.3,32-87.4,48.9c-2,1.2-4,1.8-6,1.8
		C109.6,236.8,107.6,236.3,105.6,235.1 M100.4,3.2c-29.5,17-58.9,34-88.4,51c-7.6,4.4-11.4,11-11.4,19.8c0,17,0,33.9,0,50.9
		c0,17.1,0,34.2,0,51.3c0,8.4,3.6,14.9,10.9,19.1c29.8,17.2,59.6,34.4,89.4,51.6c7.1,4.1,14.4,4.1,21.4,0
		c29.7-17.1,59.4-34.2,89-51.4c7.5-4.3,11.3-10.9,11.3-19.5c0-34,0-68.1,0-102.1c0-8.7-3.8-15.3-11.3-19.6c-29.5-17-59-34-88.5-51
		c-3.7-2.2-7.5-3.2-11.3-3.2C107.9-0.1,104.1,1,100.4,3.2"/>
	<path class="st0" d="M105.6,235.1c-29.3-17-58.6-33.9-87.9-50.8c-3.9-2.2-5.5-5-5.5-9.5c0-34,0-65.5,0-99.5c0-4.5,1.4-7.5,5.3-9.7
		c29.8-18.7,58.4-33.6,87.7-50.6c3.9-2.2,8.2-2.4,12-0.2c29.4,17,57.1,30.6,88.1,49.3c3.8,2.2,5.6,5.1,5.5,9.5c0,17,0,35.9,0,52.9
		c0,16.8-0.1,30.2,0,47c0,4.9-1.8,10.3-6.1,12.7c-29.2,16.8-58.3,32-87.4,48.9c-2,1.2-4,1.8-6,1.8
		C109.6,236.8,107.6,236.3,105.6,235.1 M100.4,3.2c-29.5,17-58.9,34-88.4,51c-7.6,4.4-11.4,11-11.4,19.8c0,17,0,33.9,0,50.9
		c0,17.1,0,34.2,0,51.3c0,8.4,3.6,14.9,10.9,19.1c29.8,17.2,59.6,34.4,89.4,51.6c7.1,4.1,14.4,4.1,21.4,0
		c29.7-17.1,59.4-34.2,89-51.4c7.5-4.3,11.3-10.9,11.3-19.5c0-34,0-68.1,0-102.1c0-8.7-3.8-15.3-11.3-19.6c-29.5-17-59-34-88.5-51
		c-3.7-2.2-7.5-3.2-11.3-3.2C107.9-0.1,104.1,1,100.4,3.2"/>
</g>
<g>
	<path class="st1" d="M1.7,183.6c-0.1-0.3-0.2-0.6-0.3-1"/>
	<path class="st2" d="M105.6,235.1c-29.3-17-58.6-33.9-87.9-50.8c-2.7-1.6-4.3-3.4-5.1-6l-11,5.4c1.6,4.8,4.8,8.7,9.8,11.6
		c29.8,17.2,59.6,34.4,89.4,51.6c3.3,1.9,6.7,2.9,10.1,3l0-13.1C109.2,236.7,107.4,236.1,105.6,235.1z"/>
	<path class="st1" d="M12.3,174.8c0-34,0-65.5,0-99.5c0-2.2,0.4-4.1,1.2-5.7L3,63.1c-1.6,3.1-2.5,6.7-2.5,10.8c0,17,0,33.9,0,50.9
		c0,17.1,0,34.2,0,51.3c0,2.3,0.3,4.5,0.9,6.5l11-5.6C12.3,176.4,12.3,175.6,12.3,174.8z"/>
	<path class="st1" d="M12.5,177.1l-11,5.6c0.1,0.3,0.2,0.6,0.3,1l11-5.4C12.6,177.9,12.5,177.5,12.5,177.1z"/>
	<path class="st3" d="M17.5,65.5c29.8-18.7,58.4-33.6,87.7-50.6c1.8-1.1,3.8-1.7,5.7-1.7V0c-3.6,0.1-7.1,1.2-10.7,3.2
		c-29.5,17-58.9,34-88.4,51c-3.9,2.3-6.8,5.1-8.7,8.5l10.4,6.5C14.5,67.7,15.8,66.6,17.5,65.5z"/>
	<path class="st3" d="M13.7,69.1L3.3,62.6C3.2,62.8,3.1,63,3,63.1l10.4,6.4C13.5,69.4,13.6,69.3,13.7,69.1z"/>
	<path class="st4" d="M117.3,14.7c29.4,17,57.1,30.6,88.1,49.3c2.2,1.3,3.7,2.8,4.6,4.6l10.1-5.7c-1.9-3.5-4.8-6.4-8.8-8.7
		c-29.5-17-59-34-88.5-51c-3.7-2.2-7.5-3.2-11.3-3.2c-0.2,0-0.4,0-0.6,0l0.1,13.2C113.2,13.1,115.3,13.6,117.3,14.7z"/>
	<path class="st4" d="M111.1,13.2L111.1,0c0,0,0,0-0.1,0v13.2C111.1,13.2,111.1,13.2,111.1,13.2z"/>
	<path class="st5" d="M211,73.5c0,17,0,35.9,0,52.9c0,16.8-0.1,30.2,0,47c0,1.8-0.2,3.7-0.8,5.5l10.8,5.9c1.1-2.7,1.6-5.6,1.6-8.9
		c0-34,0-68.1,0-102.1c0-3.7-0.7-7-2.1-10l-10,6.4C210.9,71.2,211,72.3,211,73.5z"/>
	<path class="st5" d="M210.6,70.2l10-6.4c-0.1-0.3-0.3-0.6-0.5-0.9L210,68.7C210.2,69.2,210.4,69.7,210.6,70.2z"/>
	<path class="st1" d="M204.9,186.2c-29.2,16.8-58.3,32-87.4,48.9c-2,1.2-4,1.8-6,1.8c-0.2,0-0.3,0-0.5,0l0,13.1
		c3.8,0.1,7.5-0.9,11.2-3c29.7-17.1,59.4-34.2,89-51.4c3.8-2.2,6.7-5,8.6-8.3l-10.6-6C208.4,183.2,206.9,185.1,204.9,186.2z"/>
	<path class="st1" d="M111,236.8l0,13.1c0,0,0.1,0,0.1,0l0-13.1C111.1,236.8,111,236.8,111,236.8z"/>
	<path class="st1" d="M210.2,179c-0.2,0.7-0.5,1.5-0.8,2.2l10.6,6c0.4-0.7,0.8-1.5,1.1-2.3L210.2,179z"/>
</g>
<g>
	<g>
		<defs>
			<path id="SVGID_1_" d="M103.9,68.9c-5.2,3.1-34.5,20.6-38.1,23c-5.1,3.3-5.8,7.3-5.8,12.4c0,11.6,0,36.4,0,42.4
				c0,5.1,0.4,8.3,5.6,11.3c5.1,3,34.6,21,39.5,23.9c4.9,2.9,6.4,3.1,11.3,0.2c4.8-2.9,46.8-28.5,46.8-28.5l-11.6-7.1
				c0,0-32.8,18.9-36.1,21c-2.8,1.7-4.9,2.3-8.3,0.2c-3.5-2.1-26.9-16.1-31.1-18.6c-4.1-2.5-4-5.3-4-9.6c0-7.2,0-24.6,0-29.6
				c0-7.1,0.8-8.8,4.8-11.1c3.5-2.1,26.9-15.9,30.3-17.9c3.5-2.1,4.9-2.2,7.9-0.5c3,1.7,32.8,18.8,32.8,18.8s-31.8,17.8-34.4,19.2
				c-2.6,1.5-4,1.3-6.3,0c-3.3-1.8-16.6-8.6-16.6-8.6v15.2c0,0,9.1,4.8,15.1,7.7c4.2,2.1,5.5,2,9.4,0c3.6-1.8,36-21.8,42.7-25.8
				c3.3-1.9,4.5-3.8,4.5-6.6c0-2.9-0.7-5.3-3.4-7.1c-5.2-3.4-36.8-22.3-42.1-25.6c-2.1-1.3-3.7-1.8-5.3-1.8
				C109.2,65.8,107.1,67,103.9,68.9"/>
		</defs>
		<clipPath id="SVGID_2_">
			<use xlink:href="#SVGID_1_"  style="overflow:visible;"/>
		</clipPath>
		<polygon class="st6" points="111.1,197.2 111.1,143 95.6,135.7 41.7,164.2 		"/>
	</g>
	<g>
		<defs>
			<path id="SVGID_3_" d="M103.9,68.9c-5.2,3.1-34.5,20.6-38.1,23c-5.1,3.3-5.8,7.3-5.8,12.4c0,11.6,0,36.4,0,42.4
				c0,5.1,0.4,8.3,5.6,11.3c5.1,3,34.6,21,39.5,23.9c4.9,2.9,6.4,3.1,11.3,0.2c4.8-2.9,46.8-28.5,46.8-28.5l-11.6-7.1
				c0,0-32.8,18.9-36.1,21c-2.8,1.7-4.9,2.3-8.3,0.2c-3.5-2.1-26.9-16.1-31.1-18.6c-4.1-2.5-4-5.3-4-9.6c0-7.2,0-24.6,0-29.6
				c0-7.1,0.8-8.8,4.8-11.1c3.5-2.1,26.9-15.9,30.3-17.9c3.5-2.1,4.9-2.2,7.9-0.5c3,1.7,32.8,18.8,32.8,18.8s-31.8,17.8-34.4,19.2
				c-2.6,1.5-4,1.3-6.3,0c-3.3-1.8-16.6-8.6-16.6-8.6v15.2c0,0,9.1,4.8,15.1,7.7c4.2,2.1,5.5,2,9.4,0c3.6-1.8,36-21.8,42.7-25.8
				c3.3-1.9,4.5-3.8,4.5-6.6c0-2.9-0.7-5.3-3.4-7.1c-5.2-3.4-36.8-22.3-42.1-25.6c-2.1-1.3-3.7-1.8-5.3-1.8
				C109.2,65.8,107.1,67,103.9,68.9"/>
		</defs>
		<clipPath id="SVGID_4_">
			<use xlink:href="#SVGID_3_"  style="overflow:visible;"/>
		</clipPath>
		<polygon class="st7" points="138.9,130.9 111.1,143 111.1,197.3 173.6,156.4 		"/>
	</g>
	<g>
		<defs>
			<path id="SVGID_5_" d="M103.9,68.9c-5.2,3.1-34.5,20.6-38.1,23c-5.1,3.3-5.8,7.3-5.8,12.4c0,11.6,0,36.4,0,42.4
				c0,5.1,0.4,8.3,5.6,11.3c5.1,3,34.6,21,39.5,23.9c4.9,2.9,6.4,3.1,11.3,0.2c4.8-2.9,46.8-28.5,46.8-28.5l-11.6-7.1
				c0,0-32.8,18.9-36.1,21c-2.8,1.7-4.9,2.3-8.3,0.2c-3.5-2.1-26.9-16.1-31.1-18.6c-4.1-2.5-4-5.3-4-9.6c0-7.2,0-24.6,0-29.6
				c0-7.1,0.8-8.8,4.8-11.1c3.5-2.1,26.9-15.9,30.3-17.9c3.5-2.1,4.9-2.2,7.9-0.5c3,1.7,32.8,18.8,32.8,18.8s-31.8,17.8-34.4,19.2
				c-2.6,1.5-4,1.3-6.3,0c-3.3-1.8-16.6-8.6-16.6-8.6v15.2c0,0,9.1,4.8,15.1,7.7c4.2,2.1,5.5,2,9.4,0c3.6-1.8,36-21.8,42.7-25.8
				c3.3-1.9,4.5-3.8,4.5-6.6c0-2.9-0.7-5.3-3.4-7.1c-5.2-3.4-36.8-22.3-42.1-25.6c-2.1-1.3-3.7-1.8-5.3-1.8
				C109.2,65.8,107.1,67,103.9,68.9"/>
		</defs>
		<clipPath id="SVGID_6_">
			<use xlink:href="#SVGID_5_"  style="overflow:visible;"/>
		</clipPath>
		<polygon class="st8" points="83.3,108.7 95.6,135.7 39.9,165 40.9,83.2 		"/>
	</g>
	<g>
		<defs>
			<path id="SVGID_7_" d="M103.9,68.9c-5.2,3.1-34.5,20.6-38.1,23c-5.1,3.3-5.8,7.3-5.8,12.4c0,11.6,0,36.4,0,42.4
				c0,5.1,0.4,8.3,5.6,11.3c5.1,3,34.6,21,39.5,23.9c4.9,2.9,6.4,3.1,11.3,0.2c4.8-2.9,46.8-28.5,46.8-28.5l-11.6-7.1
				c0,0-32.8,18.9-36.1,21c-2.8,1.7-4.9,2.3-8.3,0.2c-3.5-2.1-26.9-16.1-31.1-18.6c-4.1-2.5-4-5.3-4-9.6c0-7.2,0-24.6,0-29.6
				c0-7.1,0.8-8.8,4.8-11.1c3.5-2.1,26.9-15.9,30.3-17.9c3.5-2.1,4.9-2.2,7.9-0.5c3,1.7,32.8,18.8,32.8,18.8s-31.8,17.8-34.4,19.2
				c-2.6,1.5-4,1.3-6.3,0c-3.3-1.8-16.6-8.6-16.6-8.6v15.2c0,0,9.1,4.8,15.1,7.7c4.2,2.1,5.5,2,9.4,0c3.6-1.8,36-21.8,42.7-25.8
				c3.3-1.9,4.5-3.8,4.5-6.6c0-2.9-0.7-5.3-3.4-7.1c-5.2-3.4-36.8-22.3-42.1-25.6c-2.1-1.3-3.7-1.8-5.3-1.8
				C109.2,65.8,107.1,67,103.9,68.9"/>
		</defs>
		<clipPath id="SVGID_8_">
			<use xlink:href="#SVGID_7_"  style="overflow:visible;"/>
		</clipPath>
		<polygon class="st9" points="111.6,96.9 111.6,48.9 38.4,82.7 84.9,109.7 		"/>
	</g>
	<g>
		<defs>
			<path id="SVGID_9_" d="M103.9,68.9c-5.2,3.1-34.5,20.6-38.1,23c-5.1,3.3-5.8,7.3-5.8,12.4c0,11.6,0,36.4,0,42.4
				c0,5.1,0.4,8.3,5.6,11.3c5.1,3,34.6,21,39.5,23.9c4.9,2.9,6.4,3.1,11.3,0.2c4.8-2.9,46.8-28.5,46.8-28.5l-11.6-7.1
				c0,0-32.8,18.9-36.1,21c-2.8,1.7-4.9,2.3-8.3,0.2c-3.5-2.1-26.9-16.1-31.1-18.6c-4.1-2.5-4-5.3-4-9.6c0-7.2,0-24.6,0-29.6
				c0-7.1,0.8-8.8,4.8-11.1c3.5-2.1,26.9-15.9,30.3-17.9c3.5-2.1,4.9-2.2,7.9-0.5c3,1.7,32.8,18.8,32.8,18.8s-31.8,17.8-34.4,19.2
				c-2.6,1.5-4,1.3-6.3,0c-3.3-1.8-16.6-8.6-16.6-8.6v15.2c0,0,9.1,4.8,15.1,7.7c4.2,2.1,5.5,2,9.4,0c3.6-1.8,36-21.8,42.7-25.8
				c3.3-1.9,4.5-3.8,4.5-6.6c0-2.9-0.7-5.3-3.4-7.1c-5.2-3.4-36.8-22.3-42.1-25.6c-2.1-1.3-3.7-1.8-5.3-1.8
				C109.2,65.8,107.1,67,103.9,68.9"/>
		</defs>
		<clipPath id="SVGID_10_">
			<use xlink:href="#SVGID_9_"  style="overflow:visible;"/>
		</clipPath>
		<polygon class="st10" points="166.1,91.7 146.5,99.8 111.6,96.7 111.6,47.8 		"/>
	</g>
	<g>
		<defs>
			<path id="SVGID_11_" d="M103.9,68.9c-5.2,3.1-34.5,20.6-38.1,23c-5.1,3.3-5.8,7.3-5.8,12.4c0,11.6,0,36.4,0,42.4
				c0,5.1,0.4,8.3,5.6,11.3c5.1,3,34.6,21,39.5,23.9c4.9,2.9,6.4,3.1,11.3,0.2c4.8-2.9,46.8-28.5,46.8-28.5l-11.6-7.1
				c0,0-32.8,18.9-36.1,21c-2.8,1.7-4.9,2.3-8.3,0.2c-3.5-2.1-26.9-16.1-31.1-18.6c-4.1-2.5-4-5.3-4-9.6c0-7.2,0-24.6,0-29.6
				c0-7.1,0.8-8.8,4.8-11.1c3.5-2.1,26.9-15.9,30.3-17.9c3.5-2.1,4.9-2.2,7.9-0.5c3,1.7,32.8,18.8,32.8,18.8s-31.8,17.8-34.4,19.2
				c-2.6,1.5-4,1.3-6.3,0c-3.3-1.8-16.6-8.6-16.6-8.6v15.2c0,0,9.1,4.8,15.1,7.7c4.2,2.1,5.5,2,9.4,0c3.6-1.8,36-21.8,42.7-25.8
				c3.3-1.9,4.5-3.8,4.5-6.6c0-2.9-0.7-5.3-3.4-7.1c-5.2-3.4-36.8-22.3-42.1-25.6c-2.1-1.3-3.7-1.8-5.3-1.8
				C109.2,65.8,107.1,67,103.9,68.9"/>
		</defs>
		<clipPath id="SVGID_12_">
			<use xlink:href="#SVGID_11_"  style="overflow:visible;"/>
		</clipPath>
		<path class="st11" d="M110.8,99.8v41c0,0,66.6-22,66.3-21.6c-0.2,0.4-12.7-29.2-12.7-29.2l-16.6,9L110.8,99.8z"/>
	</g>
	<g>
		<defs>
			<path id="SVGID_13_" d="M103.9,68.9c-5.2,3.1-34.5,20.6-38.1,23c-5.1,3.3-5.8,7.3-5.8,12.4c0,11.6,0,36.4,0,42.4
				c0,5.1,0.4,8.3,5.6,11.3c5.1,3,34.6,21,39.5,23.9c4.9,2.9,6.4,3.1,11.3,0.2c4.8-2.9,46.8-28.5,46.8-28.5l-11.6-7.1
				c0,0-32.8,18.9-36.1,21c-2.8,1.7-4.9,2.3-8.3,0.2c-3.5-2.1-26.9-16.1-31.1-18.6c-4.1-2.5-4-5.3-4-9.6c0-7.2,0-24.6,0-29.6
				c0-7.1,0.8-8.8,4.8-11.1c3.5-2.1,26.9-15.9,30.3-17.9c3.5-2.1,4.9-2.2,7.9-0.5c3,1.7,32.8,18.8,32.8,18.8s-31.8,17.8-34.4,19.2
				c-2.6,1.5-4,1.3-6.3,0c-3.3-1.8-16.6-8.6-16.6-8.6v15.2c0,0,9.1,4.8,15.1,7.7c4.2,2.1,5.5,2,9.4,0c3.6-1.8,36-21.8,42.7-25.8
				c3.3-1.9,4.5-3.8,4.5-6.6c0-2.9-0.7-5.3-3.4-7.1c-5.2-3.4-36.8-22.3-42.1-25.6c-2.1-1.3-3.7-1.8-5.3-1.8
				C109.2,65.8,107.1,67,103.9,68.9"/>
		</defs>
		<clipPath id="SVGID_14_">
			<use xlink:href="#SVGID_13_"  style="overflow:visible;"/>
		</clipPath>
		<polygon class="st12" points="88.4,105.9 90.3,124.9 110.8,140.6 110.8,99.8 		"/>
	</g>
</g>
<g>
	<g>
		<defs>
			<rect id="SVGID_15_" x="-67.9" y="-39.6" width="854" height="365"/>
		</defs>
		<clipPath id="SVGID_16_">
			<use xlink:href="#SVGID_15_"  style="overflow:visible;"/>
		</clipPath>
		<path class="st13" d="M314.1,79c-10-6-19-9-26.8-9c-7.8,0-16.8,3.1-26.8,9.2c-10,6.2-15,12.3-15,18.3v52.7c0,6.4,5,12.7,14.9,18.7
			c9.9,6,18.8,9,26.7,9c9.5,0,21.7-4,36.7-12c1.6-0.8,2-1.9,1.1-3.1l-1.6-2.1c-1.1-1.3-2.6-1.4-4.7-0.4c-13,6.9-23.4,10.3-31.5,10.3
			c-5.8,0-12.6-2.3-20.2-7c-7.7-4.7-11.5-9.4-11.5-14.2v-23.5h68.1c1.3,0,2.6-0.5,3.8-1.6c1.3-1.1,1.9-2,1.9-2.8V97.2
			C329.2,91.1,324.2,85,314.1,79 M319.3,118.7h-64V98.1c0-4.5,3.8-9.1,11.5-13.8c7.7-4.7,14.5-7,20.5-7c6,0,12.9,2.3,20.5,6.9
			s11.5,9.2,11.5,13.7V118.7z M415.9,79c-9.9-6-18.9-9-26.9-9c-7.8,0-16.8,3-26.8,9.1c-10,6.1-15,12.2-15,18.2v117.5
			c0,1.4,0.9,2.1,2.7,2.1h4.4c1.8,0,2.7-0.7,2.7-2.1V164c11.3,9.2,22,13.9,32,13.9c7.8,0,16.8-3,26.8-9.1c10-6.1,15-12.1,15-18V97.2
			C430.8,91.1,425.8,85,415.9,79 M421,150c0,4.5-3.9,9-11.8,13.7c-7.8,4.6-14.6,6.9-20.2,6.9c-5.8,0-12.6-2.3-20.4-6.8
			c-7.8-4.5-11.6-9.1-11.6-13.8V98.1c0-4.6,3.8-9.2,11.5-13.9c7.7-4.6,14.5-6.9,20.5-6.9c5.8,0,12.6,2.3,20.4,6.9
			c7.8,4.6,11.6,9.2,11.6,13.9L421,150L421,150z M519.1,78.8c-9.9-6-18.9-8.9-27-8.9c-8,0-17,3-27,9c-9.9,6-14.9,12.1-14.9,18.3
			v53.4c0,6,5,12.1,15,18.2c10,6.1,19,9.1,26.8,9.1c7.8,0,16.8-3,26.8-9.1c10-6.1,15-12.2,15-18.2V97.2
			C534,90.9,529,84.8,519.1,78.8 M524.2,149.8c0,4.6-3.9,9.2-11.6,13.9c-7.8,4.6-14.5,6.9-20.4,6.9c-6,0-12.9-2.3-20.5-6.9
			c-7.7-4.6-11.5-9.2-11.5-13.9V98.1c0-4.6,3.8-9.2,11.5-13.9s14.5-6.9,20.5-6.9c5.8,0,12.6,2.3,20.4,6.9
			c7.8,4.6,11.6,9.2,11.6,13.9V149.8z M687.1,78.8c-9.5-6-17.9-8.9-25.2-8.9c-5.1,0-10.9,1.7-17.5,5.1c-6.6,3.4-12,7.4-16.4,11.9
			c-4.6-4.6-10-8.6-16.4-12c-6.4-3.4-12.3-5-17.8-5c-6.8,0-15,3-24.6,9c-9.7,6-14.5,11.9-14.5,17.6v77.7c0,1.4,0.9,2.1,2.7,2.1h4.4
			c1.8,0,2.7-0.7,2.7-2.1V97.4c0-4.5,3.6-9,10.9-13.4c7.3-4.5,13.4-6.7,18.3-6.7c4.9,0,11,2.3,18.3,6.8c7.3,4.6,10.9,9,10.9,13.3
			v76.9c0,1.4,0.9,2.1,2.7,2.1h4.4c1.8,0,2.7-0.7,2.7-2.1V97.4c0-4.5,3.6-9,10.7-13.4c7.1-4.5,13.2-6.7,18.3-6.7
			c5.1,0,11.3,2.2,18.6,6.7c7.3,4.5,10.9,9,10.9,13.4v76.9c0,1.4,0.9,2.1,2.7,2.1h4.4c1.8,0,2.7-0.7,2.7-2.1V96.6
			C701.3,90.7,696.6,84.8,687.1,78.8"/>
	</g>
</g>
<g>
	<g>
		<path class="st1" d="M554,209.1c-3.2-2.2-6-3.3-8.5-3.3c-1.5,0-3.2,0.5-5.2,1.6c-2,1.1-3.7,2.3-5,3.6c-1.3-1.3-3-2.6-4.9-3.6
			c-2-1.1-3.7-1.6-5.3-1.6c-2.4,0-5.2,1.1-8.4,3.3c-3.2,2.2-4.8,4.3-4.8,6.4v25.7c0,0.9,0.5,1.3,1.5,1.3h3.3c0.4,0,0.8-0.1,1.1-0.4
			c0.3-0.2,0.4-0.6,0.4-0.9v-24.9c0-1.2,0.9-2.4,2.6-3.6c1.7-1.2,3.2-1.8,4.4-1.8c1.2,0,2.6,0.6,4.4,1.8c1.7,1.2,2.6,2.4,2.6,3.6
			v24.9c0,0.4,0.1,0.7,0.4,0.9c0.3,0.2,0.6,0.4,1.1,0.4h3.3c1,0,1.5-0.4,1.5-1.3v-24.9c0-1.2,0.9-2.4,2.6-3.6
			c1.7-1.2,3.2-1.8,4.4-1.8c1.2,0,2.7,0.6,4.4,1.8c1.7,1.2,2.6,2.4,2.6,3.6v24.9c0,0.9,0.5,1.3,1.5,1.3h3.3c0.4,0,0.7-0.1,1-0.4
			c0.3-0.2,0.5-0.6,0.5-0.9v-25.7C558.8,213.4,557.2,211.3,554,209.1z M586.5,209.1c-3.4-2.2-6.3-3.4-8.8-3.4
			c-2.5,0-6.1,1.1-10.7,3.3c-1.1,0.4-1.4,1.1-0.9,2.1l0.8,1.7c0.4,0.8,1.2,1,2.4,0.6c4.1-1.8,6.9-2.7,8.4-2.7c1.4,0,3,0.6,4.8,1.9
			c1.8,1.3,2.7,2.5,2.7,3.6v4.7H575c-2.2,0-4.6,0.9-7.2,2.6c-2.6,1.8-3.9,3.5-3.9,5.3v4.2c0,2.1,1.6,4.3,4.9,6.5
			c3.3,2.2,6.2,3.3,8.8,3.3s5.5-1.1,8.9-3.3c3.4-2.2,5-4.4,5-6.5v-17.6C591.6,213.6,589.9,211.4,586.5,209.1z M585.3,232.5
			c0,1.1-0.9,2.3-2.8,3.6c-1.9,1.3-3.5,1.9-4.8,1.9c-1.3,0-2.9-0.6-4.8-1.9c-1.9-1.3-2.8-2.5-2.8-3.6v-2.7c0-1,0.7-2,2.1-3
			c1.4-1,2.7-1.5,4-1.5h9.1L585.3,232.5L585.3,232.5z M614.3,206.4c-1.3-0.4-2.7-0.6-4.2-0.6c-2.4,0-5.2,1.1-8.3,3.4
			c-3.2,2.2-4.7,4.4-4.7,6.5v25.4c0,0.4,0.1,0.7,0.4,0.9c0.3,0.2,0.6,0.4,1.1,0.4h3.3c1,0,1.5-0.4,1.5-1.3v-24.7
			c0-1.1,0.9-2.3,2.6-3.6c1.7-1.3,3.2-2,4.4-2c0.8,0,1.7,0.1,2.8,0.3c1.1,0.1,1.7-0.2,1.9-0.9l0.4-2.2
			C615.7,207.2,615.3,206.7,614.3,206.4z M631.6,222.4l13.5-13.8c0.5-0.5,0.7-1,0.6-1.5c-0.1-0.5-0.5-0.7-1.1-0.7h-3.7
			c-1,0-1.9,0.4-2.7,1.3l-13.2,14v-28.6c0-0.4-0.1-0.7-0.4-0.9c-0.3-0.2-0.6-0.4-1.1-0.4h-3.3c-0.4,0-0.8,0.1-1.1,0.4
			c-0.3,0.2-0.4,0.6-0.4,0.9v48.2c0,0.4,0.1,0.7,0.4,0.9c0.3,0.2,0.6,0.4,1.1,0.4h3.3c0.4,0,0.8-0.1,1.1-0.4
			c0.3-0.2,0.4-0.6,0.4-0.9V229l2.5-2.6l11.3,14.7c0.4,0.8,1.2,1.2,2.4,1.3h4c0.4,0,0.7-0.1,0.8-0.3c0.2-0.2,0.2-0.5,0.2-0.8
			c-0.1-0.3-0.2-0.6-0.4-0.8L631.6,222.4z M670.4,209.1c-3.4-2.2-6.3-3.3-8.8-3.3c-2.5,0-5.4,1.1-8.8,3.4s-5.1,4.5-5.1,6.8V233
			c0,2.3,1.7,4.5,5,6.7c3.3,2.2,6.3,3.3,8.9,3.3c3,0,6.9-1.3,11.6-4c0.8-0.4,1-1.1,0.6-1.9l-1-1.8c-0.5-0.8-1.3-1-2.5-0.5
			c-3.8,2.1-6.7,3.1-8.6,3.1c-1.4,0-3-0.6-4.8-1.9c-1.8-1.3-2.7-2.5-2.7-3.8v-6.1h18.5c0.6,0,1.2-0.3,1.9-0.8c0.6-0.6,1-1,1-1.5
			v-8.1C675.4,213.6,673.7,211.3,670.4,209.1z M669.2,221.8H654v-5.3c0-1.3,0.9-2.5,2.7-3.8c1.8-1.3,3.4-1.9,4.8-1.9s3,0.6,4.8,1.9
			c1.8,1.3,2.7,2.5,2.7,3.7L669.2,221.8L669.2,221.8z M700.8,240.5l-0.4-2c-0.2-0.9-0.8-1.2-1.8-1.1c-1.6,0.4-2.8,0.7-3.5,0.7
			c-0.8,0-1.7-0.4-2.9-1.2c-1.1-0.8-1.7-1.6-1.7-2.4v-23.2h8.3c0.4,0,0.7-0.1,1-0.4c0.3-0.3,0.5-0.6,0.5-0.9v-2.2
			c0-0.9-0.5-1.3-1.5-1.3h-8.3v-7.6c0-0.9-0.5-1.3-1.5-1.3h-3.3c-1,0-1.5,0.4-1.5,1.3v7.6h-5.4c-0.4,0-0.8,0.1-1.1,0.4
			c-0.3,0.2-0.4,0.6-0.4,0.9v2.2c0,0.3,0.1,0.6,0.4,0.9c0.3,0.3,0.6,0.4,1.1,0.4h5.4v24c0,1.8,1.2,3.6,3.7,5.3
			c2.4,1.7,4.7,2.6,6.7,2.6c1.4,0,3.1-0.3,5.1-0.9C700.5,241.9,701,241.3,700.8,240.5z"/>
	</g>
</g>
</svg>
